<svg width="250" height="250" viewBox="0 0 250 250" fill="none" xmlns="http://www.w3.org/2000/svg">
    <g clip-path="url(#clip0_181_31)">
        <circle cx="125" cy="125" r="125" fill="#292929" />
        <path fill-rule="evenodd" clip-rule="evenodd"
            d="M60 88.7031H78.6216V95.7302H67.027V114.703H78.6216V121.73H60V88.7031ZM60 128.055H67.027V153.879H78.6216V160.906H60V128.055ZM101.459 88.7031H82.8379V121.73H101.459V114.703H89.8649V95.7302H101.459V88.7031ZM82.8379 161.082V128.406H89.8649V161.082H82.8379ZM190 88.7031H105.676V121.73H190V88.7031ZM112.703 114.703V95.7302H182.973V114.703H112.703ZM94.4324 128.055H180.513V141.055H189.297V161.082H94.4324V148.082V141.055V128.055ZM101.459 141.055H173.486V135.082H101.459V141.055ZM101.459 148.082V154.055H182.27V148.082H180.513H101.459Z"
            fill="#E9FF5F" />
    </g>
    <defs>
        <clipPath id="clip0_181_31">
            <rect width="250" height="250" fill="white" />
        </clipPath>
    </defs>
</svg>