<svg width="79" height="44" viewBox="0 0 79 44" fill="none" xmlns="http://www.w3.org/2000/svg">
    <path fill-rule="evenodd" clip-rule="evenodd"
        d="M0 0H11.3162V4.27027H4.27027V15.8H11.3162V20.0703H0V0ZM0 23.9136H4.27027V39.6068H11.3162V43.8771H0V23.9136ZM25.1946 0H13.8784V20.0703H25.1946V15.8H18.1487V4.27027H25.1946V0ZM13.8784 43.9839V24.1272H18.1487V43.9839H13.8784ZM79 0H27.7568V20.0703H79V0ZM32.0271 15.8V4.27027H74.7298V15.8H32.0271ZM20.9243 23.9136H73.2351V31.8136H78.5729V43.9838H20.9243V36.0839V31.8136V23.9136ZM25.1946 31.8136H68.9648V28.1838H25.1946V31.8136ZM25.1946 36.0839V39.7136H74.3027V36.0839H73.2351H25.1946Z"
        fill="white" />
</svg>